# xmcd CD database file
#
# Track frame offsets:
#	150
#	29836
#	65504
#	89745
#	112615
#	135106
#	152155
#	171086
#	188586
#
# Disc length: 2895 seconds
#
# Revision: 0
# Processed by: cddbd v1.5.1PL2 Copyright (c) Steve Scherf et al.
# Submitted via: CDex 1.51
#
DISCID=6e0b4d09
DTITLE=Puerto Rico All Stars - De Regreso
DYEAR=1996
DGENRE=Salsa
TTITLE0=De Regreso
TTITLE1=Tito El Rey
TTITLE2=Quien Dijo Medio
TTITLE3=Prefiero Ser Rumbero
TTITLE4=Boricua Hasta La Muerte
TTITLE5=Chango Ta Ben
TTITLE6=Despierta Boricau
TTITLE7=Un Saludo
TTITLE8=Cuban Fantasy
EXTD=YEAR: 1996
EXTT0=
EXTT1=
EXTT2=
EXTT3=
EXTT4=
EXTT5=
EXTT6=
EXTT7=
EXTT8=
PLAYORDER=
